<svg fill="#000000" xmlns="http://www.w3.org/2000/svg" xmlns:xlink="http://www.w3.org/1999/xlink" version="1.1" x="0px" y="0px" viewBox="0 0 100 100" enable-background="new 0 0 100 100" xml:space="preserve"><path d="M94.35,40.01c-0.19-0.61-0.69-1.08-1.31-1.23l-26.98-6.54L51.71,8.47c-0.33-0.55-0.92-0.88-1.56-0.89c-0.01,0-0.01,0-0.01,0  c-0.64,0-1.23,0.34-1.57,0.88L34.02,32.09l-27.04,6.3C6.36,38.54,5.85,39,5.65,39.61c-0.2,0.61-0.07,1.28,0.35,1.77l17.98,21.14  l-2.37,27.66c-0.05,0.64,0.23,1.26,0.75,1.64c0.52,0.38,1.19,0.46,1.79,0.22l25.66-10.57l25.58,10.8c0.23,0.1,0.47,0.15,0.71,0.15  c0.01,0,0.02,0,0.02,0c1.02,0,1.84-0.83,1.84-1.84c0-0.14-0.01-0.28-0.04-0.4l-2.1-27.42l18.17-20.99  C94.41,41.29,94.55,40.62,94.35,40.01z M81.26,50.85c-0.28-0.41-0.8-0.62-1.3-0.46c-0.62,0.2-0.95,0.85-0.75,1.47  c0.1,0.31,0.32,0.55,0.59,0.68L73,60.4c-1.6-0.94-3.61-4.58-3.61-4.58c1.18,3.65,2.57,5.2,2.89,5.52c-0.14,0.29-0.21,0.61-0.19,0.93  l0.25,3.25c-0.28-0.12-0.6-0.1-0.87,0.09c-0.4,0.29-0.48,0.86-0.19,1.26c0.27,0.38,0.79,0.46,1.18,0.23l1.11,14.51  c-0.19-0.09-0.43-0.08-0.61,0.06c-0.28,0.2-0.34,0.59-0.14,0.87c0.2,0.27,0.56,0.33,0.84,0.15l0.38,5.02L56.1,80.13  c0.37-0.4,0.44-1.01,0.11-1.47c-0.39-0.52-1.12-0.63-1.64-0.25c-0.29,0.22-0.44,0.55-0.45,0.89l-3.22-1.36  c0.42-1.71,2.87-4.42,3.17-4.76c-3.17,2.31-4.16,4.13-4.33,4.47c-0.21,0.01-0.42,0.05-0.62,0.13l-2.63,1.08  c0.1-0.34-0.02-0.73-0.33-0.96c-0.4-0.29-0.96-0.21-1.26,0.19c-0.3,0.4-0.21,0.97,0.19,1.26c0.03,0.03,0.06,0.03,0.1,0.05  l-12.63,5.2c-0.01-0.18-0.08-0.36-0.24-0.47c-0.28-0.21-0.66-0.15-0.87,0.13c-0.18,0.24-0.15,0.56,0.04,0.78l-5.95,2.45l0.91-10.65  c0.47,0.17,1.01,0.04,1.32-0.39c0.39-0.51,0.28-1.24-0.24-1.63c-0.27-0.2-0.59-0.26-0.89-0.2l1.07-12.55v-0.08  c1.79-0.12,5.25,1.49,5.52,1.62c-3.5-2.6-5.63-2.83-5.63-2.83l-0.08,0.33c-0.06-0.14-0.14-0.27-0.24-0.39l-2.02-2.37  c0.17-0.11,0.32-0.27,0.39-0.47c0.16-0.47-0.1-0.99-0.57-1.15c-0.36-0.12-0.73,0-0.97,0.27l-9.06-10.65  c0.22-0.04,0.41-0.18,0.48-0.41c0.11-0.32-0.06-0.68-0.39-0.79c-0.32-0.1-0.66,0.07-0.78,0.38l-3.61-4.24l10.16-2.36  c-0.12,0.57,0.18,1.15,0.75,1.34c0.61,0.21,1.27-0.12,1.48-0.73c0.13-0.39,0.03-0.79-0.21-1.08l12.3-2.87  c0.68,1.75,0.14,5.76,0.14,5.76c1.34-3.96,1-6.04,0.97-6.22c0.16-0.13,0.3-0.28,0.41-0.45l2.61-4.24c0.14,0.32,0.45,0.54,0.81,0.54  c0.5,0,0.91-0.4,0.91-0.9s-0.4-0.9-0.9-0.9c-0.02,0-0.03,0.01-0.05,0.01l7.66-12.44c0.09,0.22,0.32,0.38,0.58,0.39  c0.34,0,0.62-0.28,0.62-0.63c0-0.34-0.28-0.62-0.62-0.62c-0.02,0-0.04,0.01-0.06,0.01l1.81-2.94l3.14,5.2  c-0.27,0.22-0.46,0.53-0.46,0.91c0,0.64,0.52,1.17,1.16,1.17c0.18,0,0.34-0.04,0.49-0.11l8.64,14.31c-1.57,1.11-5.23,1.82-5.23,1.82  c3.37,0,5.25-0.64,5.93-0.93c0.19,0.14,0.42,0.25,0.66,0.3l3.17,0.77c-0.03,0.15-0.04,0.29,0.01,0.44c0.16,0.48,0.66,0.74,1.14,0.58  c0.29-0.09,0.48-0.33,0.57-0.6l10.46,2.54c-0.1,0.15-0.14,0.34-0.08,0.53c0.11,0.32,0.46,0.5,0.79,0.4c0.28-0.1,0.45-0.37,0.42-0.66  l8.31,2.01L81.26,50.85z"/><ellipse cx="76.141" cy="47.569" rx="0.862" ry="1.437"/><ellipse cx="77.378" cy="46.282" rx="0.375" ry="0.574"/><ellipse cx="76.066" cy="44.727" rx="0.487" ry="0.681"/><ellipse cx="63.104" cy="78.939" rx="0.862" ry="1.437"/><ellipse cx="64.416" cy="76.675" rx="0.375" ry="0.574"/><ellipse cx="63.104" cy="75.12" rx="0.487" ry="0.681"/><ellipse cx="61.247" cy="76.525" rx="0.487" ry="0.681"/><ellipse cx="22.952" cy="47.664" rx="0.862" ry="1.437"/><ellipse cx="24.264" cy="45.399" rx="0.375" ry="0.574"/><ellipse cx="22.952" cy="43.844" rx="0.487" ry="0.681"/><path d="M57.94,43.98c-3.62,0-6.56,2.94-6.56,6.56s2.94,6.56,6.56,6.56c3.61,0,6.55-2.94,6.55-6.56S61.55,43.98,57.94,43.98z   M57.94,56.45c-3.27,0-5.92-2.65-5.92-5.91c0-3.26,2.65-5.91,5.92-5.91c3.26,0,5.91,2.65,5.91,5.91  C63.85,53.8,61.2,56.45,57.94,56.45z"/><path d="M60.45,50.54c0,1.39-1.13,2.51-2.51,2.51c-1.39,0-2.52-1.12-2.52-2.51s1.13-2.51,2.52-2.51c-0.45,0-0.82,0.36-0.82,0.81  c0,0.45,0.37,0.81,0.82,0.81c0.44,0,0.81-0.36,0.81-0.81c0-0.45-0.37-0.81-0.81-0.81C59.32,48.03,60.45,49.15,60.45,50.54z"/><path d="M42.06,43.98c-3.61,0-6.55,2.94-6.55,6.56s2.94,6.56,6.55,6.56c3.62,0,6.56-2.94,6.56-6.56S45.68,43.98,42.06,43.98z   M42.06,56.45c-3.26,0-5.91-2.65-5.91-5.91c0-3.26,2.65-5.91,5.91-5.91c3.27,0,5.92,2.65,5.92,5.91  C47.98,53.8,45.33,56.45,42.06,56.45z"/><path d="M44.58,50.54c0,1.39-1.13,2.51-2.52,2.51c-1.38,0-2.51-1.12-2.51-2.51s1.13-2.51,2.51-2.51c-0.44,0-0.81,0.36-0.81,0.81  c0,0.45,0.37,0.81,0.81,0.81c0.45,0,0.81-0.36,0.81-0.81c0-0.45-0.36-0.81-0.81-0.81C43.45,48.03,44.58,49.15,44.58,50.54z"/><path d="M53.292,40.832c-0.129,0-0.251-0.079-0.3-0.207c-0.064-0.166,0.019-0.353,0.185-0.416l7.39-2.833  c0.166-0.063,0.353,0.019,0.416,0.185c0.063,0.167-0.02,0.353-0.186,0.416l-7.39,2.833C53.369,40.825,53.33,40.832,53.292,40.832z"/><path d="M46.708,40.832c-0.039,0-0.078-0.007-0.116-0.022l-7.39-2.833c-0.166-0.063-0.248-0.25-0.185-0.416  c0.063-0.166,0.249-0.249,0.416-0.185l7.39,2.833c0.166,0.063,0.249,0.25,0.185,0.416C46.959,40.753,46.837,40.832,46.708,40.832z"/><path d="M55.152,70.352c0,2.134-1.73,3.864-3.864,3.864h-2.576c-2.134,0-3.864-1.73-3.864-3.864v-4.508  c0-2.134,1.73-3.864,3.864-3.864h2.576c2.134,0,3.864,1.73,3.864,3.864V70.352z"/></svg>